<?xml version="1.0" encoding="UTF-8"?>
<svg width="60px" height="60px" viewBox="0 0 60 60" version="1.1" xmlns="http://www.w3.org/2000/svg" xmlns:xlink="http://www.w3.org/1999/xlink">
    <title>Application Insights</title>
    <g id="Application-Insights" stroke="none" stroke-width="1" fill="none" fill-rule="evenodd">
        <g transform="translate(10.000000, -0.800000)" fill-rule="nonzero">
            <path d="M13.8823529,47.5294118 L26.3529412,47.5294118 L26.3529412,51.5294118 L13.8823529,51.5294118 L13.8823529,47.5294118 Z M17.7647059,60 L22.3529412,60 L26.2352941,55.8823529 L13.8823529,55.8823529 L17.7647059,60 Z" id="Shape" fill="#7A7A7A"></path>
            <path d="M39.0588235,18.4705882 L39.0588235,18.1176471 C39.0588235,9.05882353 31.2941176,1.52941176 21.7647059,1.41176471 C21.5294118,1.05882353 16.1176471,1.52941176 16.1176471,1.52941176 C7.52941176,2.58823529 0.823529412,9.76470588 0.823529412,18.1176471 C0.823529412,18.3529412 -0.117647059,24.9411765 6.58823529,30.4705882 C9.64705882,33.1764706 12.8235294,40.4705882 13.2941176,42.5882353 L13.6470588,43.2941176 L26.1176471,43.2941176 L26.4705882,42.5882353 C26.9411765,40.4705882 30.2352941,33.1764706 33.1764706,30.5882353 C39.8823529,24.9411765 39.0588235,18.7058824 39.0588235,18.4705882 Z" id="Path" fill="#68217A"></path>
            <path d="M26.3529412,22.4705882 L24.3529412,34.9411765 L22,34.9411765 L22,22.5882353 L22.1176471,22.3529412 C26.5882353,22.3529412 26,18.2352941 26,18.2352941 L13.8823529,18.2352941 L13.8823529,18.5882353 C13.8823529,19.5294118 14.2352941,22.4705882 18,22.4705882 L18,34.9411765 L15.6470588,34.9411765 L15.0588235,32 L13.5294118,22.4705882 C10.8235294,22.4705882 10,20.7058824 9.64705882,19.4117647 L9.64705882,17.7647059 C9.64705882,14.4705882 13.4117647,14.1176471 13.4117647,14.1176471 L26.3529412,14.1176471 C26.3529412,14.1176471 30.4705882,14.5882353 30.4705882,18.2352941 C30.3529412,18.2352941 30.4705882,22.4705882 26.3529412,22.4705882 Z" id="Path" fill="#FFFFFF"></path>
            <path d="M39.0588235,20.4705882 C39.1764706,19.2941176 39.0588235,18.4705882 39.0588235,18.3529412 L39.0588235,18 C39.0588235,8.94117647 31.2941176,1.41176471 21.7647059,1.29411765 C21.5294118,0.941176471 16.1176471,1.41176471 16.1176471,1.41176471 C7.52941176,2.47058824 0.823529412,9.64705882 0.823529412,18 C0.823529412,18.1176471 0.705882353,19.0588235 0.823529412,20.4705882 L39.0588235,20.4705882 Z" id="Path" fill="#FFFFFF" opacity="0.15"></path>
        </g>
    </g>
</svg>