<?xml version="1.0" encoding="UTF-8"?>
<svg width="60px" height="60px" viewBox="0 0 60 60" version="1.1" xmlns="http://www.w3.org/2000/svg" xmlns:xlink="http://www.w3.org/1999/xlink">
    <title>Azure DevTest Labs</title>
    <g id="Azure-DevTest-Labs" stroke="none" stroke-width="1" fill="none" fill-rule="evenodd">
        <g transform="translate(2.500000, 0.500000)" fill-rule="nonzero">
            <path d="M51.5,26.265 C51.5,22.969 48.822,20.291 45.526,20.291 C45.32,20.291 45.011,20.291 44.805,20.291 C45.217,18.952 45.32,17.51 45.32,16.068 C45.423,7.21 38.213,0 29.458,0 C22.454,0 16.48,4.532 14.42,10.918 C13.287,10.506 12.154,10.3 10.918,10.3 C4.841,10.3 0,15.244 0,21.321 C0,27.398 4.841,32.239 10.815,32.239 C10.815,32.239 10.815,32.239 10.815,32.239 L10.815,32.239 L45.938,32.239 L45.938,32.239 C49.131,31.93 51.5,29.355 51.5,26.265" id="Path" fill="#0072C6"></path>
            <path d="M16.686,32.239 C15.244,30.797 14.214,28.943 13.699,26.883 C12.36,21.012 15.965,15.141 21.836,13.802 C23.072,13.493 24.308,13.493 25.441,13.596 C25.956,8.034 29.355,3.193 34.299,0.721 C32.754,0.309 31.209,0 29.458,0 C22.454,0 16.48,4.532 14.42,10.918 C13.287,10.506 12.154,10.3 10.918,10.3 C4.841,10.3 0,15.244 0,21.321 C0,27.398 4.841,32.239 10.815,32.239 C10.815,32.239 10.815,32.239 10.815,32.239 L10.815,32.239 L16.686,32.239 Z" id="Path" fill="#FFFFFF" opacity="0.1"></path>
            <path d="M47.689,47.689 L36.874,28.84 L36.874,21.218 L37.08,21.218 C38.419,21.218 39.449,20.188 39.449,18.849 C39.449,17.51 38.316,16.48 37.08,16.48 L25.132,16.48 C23.793,16.48 22.763,17.51 22.763,18.849 C22.763,20.188 23.793,21.218 25.132,21.218 L25.338,21.218 L25.338,28.84 L14.42,47.689 C13.184,49.749 14.214,51.5 16.583,51.5 L45.526,51.5 C47.998,51.5 48.925,49.852 47.689,47.689 Z" id="Path" fill="#59B4D9"></path>
            <path d="M38.728,39.655 L33.578,39.655 C33.681,39.964 33.784,40.273 33.784,40.582 C33.784,41.818 32.754,42.745 31.621,42.745 C30.488,42.745 29.458,41.715 29.458,40.582 C29.458,40.273 29.561,39.861 29.664,39.655 L23.381,39.655 L18.952,47.38 L43.26,47.38 L38.728,39.655 Z" id="Path" fill="#804998"></path>
            <path d="M31.621,42.745 C32.857,42.745 33.784,41.715 33.784,40.582 C33.784,40.273 33.681,39.861 33.578,39.655 L29.664,39.655 C29.561,39.964 29.458,40.273 29.458,40.582 C29.458,41.818 30.488,42.745 31.621,42.745 Z" id="Path" fill="#68217A"></path>
            <circle id="Oval" fill="#68217A" cx="34.402" cy="44.496" r="1.03"></circle>
            <path d="M14.42,47.689 L25.338,28.84 L25.338,21.218 L25.132,21.218 C23.793,21.218 22.763,20.188 22.763,18.849 C22.763,17.51 23.793,16.48 25.132,16.48 L30.282,16.48 L30.282,28.84 L24.514,51.5 L16.583,51.5 C14.214,51.5 13.287,49.852 14.42,47.689 Z" id="Path" fill="#FFFFFF" opacity="0.25"></path>
        </g>
    </g>
</svg>