<?xml version="1.0" encoding="UTF-8"?>
<svg width="60px" height="60px" viewBox="0 0 60 60" version="1.1" xmlns="http://www.w3.org/2000/svg" xmlns:xlink="http://www.w3.org/1999/xlink">
    <title>GitHubMarkBig</title>
    <g id="GitHubMarkBig" stroke="none" stroke-width="1" fill="none" fill-rule="evenodd">
        <g id="Group" transform="translate(-0.800000, 0.000000)" fill="#161514">
            <path d="M30.7057627,0 C13.749661,0 0,13.7471186 0,30.7057627 C0,44.2723729 8.79813559,55.7822034 20.9984746,59.8423729 C22.5330508,60.1266102 23.0964407,59.1762712 23.0964407,58.3652542 C23.0964407,57.6330508 23.0679661,55.2142373 23.0547458,52.6484746 C14.5123729,54.5059322 12.7098305,49.0255932 12.7098305,49.0255932 C11.3130508,45.4764407 9.30050847,44.5327119 9.30050847,44.5327119 C6.51457627,42.6269492 9.51050847,42.6661017 9.51050847,42.6661017 C12.5938983,42.8827119 14.2174576,45.830339 14.2174576,45.830339 C16.9561017,50.5245763 21.400678,49.1674576 23.1528814,48.3828814 C23.4284746,46.3983051 24.2242373,45.0437288 25.1023729,44.2769492 C18.2822034,43.5005085 11.1127119,40.8676271 11.1127119,29.1020339 C11.1127119,25.749661 12.3122034,23.0105085 14.2764407,20.8601695 C13.9576271,20.0867797 12.9066102,16.9637288 14.5738983,12.7342373 C14.5738983,12.7342373 17.1523729,11.9089831 23.0201695,15.8816949 C25.4694915,15.2013559 28.0962712,14.8601695 30.7057627,14.8484746 C33.3152542,14.8601695 35.9440678,15.2013559 38.3979661,15.8816949 C44.2586441,11.9089831 46.8335593,12.7342373 46.8335593,12.7342373 C48.5049153,16.9637288 47.4533898,20.0867797 47.1345763,20.8601695 C49.1033898,23.0105085 50.2947458,25.749661 50.2947458,29.1020339 C50.2947458,40.8955932 43.1115254,43.4923729 36.2740678,44.2525424 C37.3754237,45.2054237 38.3567797,47.0740678 38.3567797,49.9388136 C38.3567797,54.0472881 38.3211864,57.3538983 38.3211864,58.3652542 C38.3211864,59.1823729 38.8738983,60.1398305 40.430339,59.8383051 C52.6240678,55.7735593 61.4110169,44.2677966 61.4110169,30.7057627 C61.4110169,13.7471186 47.6633898,0 30.7057627,0" id="Fill-5"></path>
            <path d="M11.6298305,44.0867797 C11.5622034,44.239322 11.3222034,44.2850847 11.1035593,44.180339 C10.8808475,44.0801695 10.7557627,43.8722034 10.8279661,43.7191525 C10.8940678,43.5620339 11.1345763,43.5183051 11.3567797,43.6235593 C11.58,43.7237288 11.7071186,43.9337288 11.6298305,44.0867797" id="Fill-6"></path>
            <path d="M12.8735593,45.4738983 C12.7271186,45.609661 12.4408475,45.5466102 12.2466102,45.3320339 C12.0457627,45.1179661 12.0081356,44.8316949 12.1566102,44.6938983 C12.3076271,44.5581356 12.5852542,44.6216949 12.7866102,44.8357627 C12.9874576,45.0523729 13.0266102,45.3366102 12.8735593,45.4738983" id="Fill-7"></path>
            <path d="M14.0842373,47.2423729 C13.8961017,47.3730508 13.5884746,47.2505085 13.3983051,46.9774576 C13.2101695,46.7044068 13.2101695,46.3769492 13.4023729,46.2457627 C13.5930508,46.1145763 13.8961017,46.2325424 14.0888136,46.5035593 C14.2764407,46.7811864 14.2764407,47.1086441 14.0842373,47.2423729" id="Fill-8"></path>
            <path d="M15.7428814,48.9508475 C15.5745763,49.1364407 15.2161017,49.0866102 14.9537288,48.8333898 C14.6852542,48.5857627 14.6105085,48.2344068 14.779322,48.0488136 C14.949661,47.8627119 15.3101695,47.9150847 15.5745763,48.1662712 C15.8410169,48.4133898 15.9223729,48.7672881 15.7428814,48.9508475" id="Fill-9"></path>
            <path d="M18.0310169,49.9428814 C17.9567797,50.1833898 17.6115254,50.2927119 17.2637288,50.1905085 C16.9164407,50.0852542 16.6891525,49.8035593 16.759322,49.5605085 C16.8315254,49.3184746 17.1783051,49.2045763 17.5286441,49.3138983 C17.8754237,49.4186441 18.1032203,49.6983051 18.0310169,49.9428814" id="Fill-10"></path>
            <path d="M20.5438983,50.1269492 C20.5525424,50.3801695 20.2576271,50.5901695 19.8925424,50.5947458 C19.5254237,50.6028814 19.2284746,50.3979661 19.2244068,50.1488136 C19.2244068,49.8930508 19.5127119,49.6850847 19.8798305,49.6789831 C20.2449153,49.6718644 20.5438983,49.8752542 20.5438983,50.1269492" id="Fill-11"></path>
            <path d="M22.8823729,49.7288136 C22.9261017,49.9759322 22.6723729,50.229661 22.3098305,50.2972881 C21.9533898,50.3623729 21.6233898,50.2098305 21.5781356,49.9647458 C21.5338983,49.7115254 21.7922034,49.4577966 22.1481356,49.3922034 C22.5111864,49.3291525 22.8361017,49.4776271 22.8823729,49.7288136" id="Fill-12"></path>
        </g>
    </g>
</svg>