<?xml version="1.0" encoding="UTF-8"?>
<svg width="18px" height="18px" viewBox="0 0 18 18" version="1.1" xmlns="http://www.w3.org/2000/svg" xmlns:xlink="http://www.w3.org/1999/xlink">
    <title>10007-icon-service-Resource-Groups</title>
    <g id="General" stroke="none" stroke-width="1" fill="none" fill-rule="evenodd">
        <g id="10007-icon-service-Resource-Groups" fill-rule="nonzero">
            <g id="Group">
                <path d="M0.499993561,15.08 C0.499483705,15.1376748 0.530048793,15.1911637 0.58,15.22 L1.74,15.87 L3.7,17 C3.78023252,17.0458283 3.88237873,17.0191815 3.93,16.94 L4.59,15.82 C4.62831378,15.7451113 4.60209441,15.6533435 4.53,15.61 L2.23,14.31 C2.18149011,14.2797529 2.15143096,14.2271494 2.15,14.17 L2.15,3.85 C2.14948371,3.79232517 2.18004879,3.73883626 2.23,3.71 L4.53,2.41 C4.60209441,2.3666565 4.62831378,2.2748887 4.59,2.2 L3.93,1.08 C3.91056605,1.03847041 3.87518029,1.00655211 3.83187344,0.991488855 C3.78856659,0.976425602 3.74101126,0.979494835 3.7,1 L1.78,2.11 L0.58,2.78 C0.530048793,2.80883626 0.499483705,2.86232517 0.499993561,2.92 L0.499993561,15.08 Z" id="Path" fill="#949494"></path>
                <path d="M2.14,3.77 L2.2,3.71 L4.5,2.41 C4.53914658,2.39354996 4.56871172,2.36022209 4.58037705,2.31939344 C4.59204238,2.27856479 4.58454708,2.23464823 4.56,2.2 L3.9,1.08 C3.88538465,1.03688925 3.85198328,1.00274785 3.80920312,0.987191424 C3.76642295,0.971635 3.71889312,0.976346879 3.68,1 L1.75,2.11 L0.56,2.78 C0.56,2.78 0.51,2.78 0.5,2.84 L1.4,3.35 L2.14,3.77 Z" id="Path" fill="#A3A3A3"></path>
                <path d="M4.5,15.59 L2.2,14.29 C2.1691631,14.2666727 2.1450189,14.2356302 2.13,14.2 L0.51,15.2 L0.56,15.2 L1.71,15.85 L3.71,16.96 C3.7462658,16.9846642 3.79150943,16.9922208 3.8338221,16.980681 C3.87613477,16.9691412 3.91127742,16.939661 3.93,16.9 L4.59,15.78 C4.60592942,15.743044 4.60518551,15.7010204 4.58795808,15.6646514 C4.57073066,15.6282824 4.53868591,15.6010855 4.5,15.59 Z" id="Path" fill="#A3A3A3"></path>
            </g>
            <path d="M17.5000064,15.08 C17.5005163,15.1376748 17.4699512,15.1911637 17.42,15.22 L16.26,15.87 L14.3,17 C14.2197675,17.0458283 14.1176213,17.0191815 14.07,16.94 L13.41,15.82 C13.3716862,15.7451113 13.3979056,15.6533435 13.47,15.61 L15.77,14.31 C15.8185099,14.2797529 15.848569,14.2271494 15.85,14.17 L15.85,3.85 C15.8505163,3.79232517 15.8199512,3.73883626 15.77,3.71 L13.47,2.41 C13.3979056,2.3666565 13.3716862,2.2748887 13.41,2.2 L14.07,1.08 C14.089434,1.03847041 14.1248197,1.00655211 14.1681266,0.991488855 C14.2114334,0.976425602 14.2589887,0.979494835 14.3,1 L16.22,2.09 L17.42,2.76 C17.4699512,2.78883626 17.5005163,2.84232517 17.5000064,2.9 L17.5000064,15.08 L17.5000064,15.08 Z" id="Path" fill="#949494"></path>
            <path d="M15.86,3.77 L15.8,3.71 L13.5,2.41 C13.4608534,2.39354996 13.4312883,2.36022209 13.419623,2.31939344 C13.4079576,2.27856479 13.4154529,2.23464823 13.44,2.2 L14.1,1.08 C14.1146154,1.03688925 14.1480167,1.00274785 14.1907969,0.987191424 C14.233577,0.971635 14.2811069,0.976346879 14.32,1 L16.25,2.09 L17.44,2.76 C17.44,2.76 17.44,2.76 17.5,2.82 L16.6,3.33 L15.86,3.77 Z" id="Path" fill="#A3A3A3"></path>
            <path d="M13.5,15.59 L15.8,14.29 C15.8308369,14.2666727 15.8549811,14.2356302 15.87,14.2 L17.49,15.2 L17.49,15.2 L16.34,15.85 L14.34,16.96 C14.3037342,16.9846642 14.2584906,16.9922208 14.2161779,16.980681 C14.1738652,16.9691412 14.1387226,16.939661 14.12,16.9 L13.46,15.78 C13.4201147,15.7162071 13.43778,15.6322971 13.5,15.59 Z" id="Path" fill="#A3A3A3"></path>
            <polygon id="Path" fill="#32BEDD" points="14.31 5.93 14.31 12.07 8.99 15.16 8.99 9.01"></polygon>
            <polygon id="Path" fill="#9CEBFF" points="14.31 5.93 9 9.02 3.68 5.93 9 2.84"></polygon>
            <polygon id="Path" fill="#50E6FF" points="8.99 9.02 8.99 15.16 3.68 12.07 3.68 5.93"></polygon>
            <polygon id="Path" fill="#9CEBFF" points="3.68 12.07 8.99 9.01 8.99 15.16"></polygon>
            <polygon id="Path" fill="#50E6FF" points="14.31 12.07 8.99 9.01 8.99 15.16"></polygon>
        </g>
    </g>
</svg>